# xmcd
#
# Track frame offsets:
#	150
#	16462
#	37956
#	52925
#	66799
#	90773
#	113976
#	132233
#	154622
#	177554
#	199792
#	221018
#	236604
#	254856
#	282836
#
# Disc length: 4292 seconds
#
# Revision: 0
# Processed by: cddbd v1.5.2PL0 Copyright (c) Steve Scherf et al.
# Submitted via: EasyCDDAExtractor 16.0.6.1
#
DISCID=d210c20f
DTITLE=GQ - Standing Ovation: The Story of GQ and the Rhythm Makers 1974-1982
DYEAR=2016
DGENRE=Disco
TTITLE0=Prime Cut
TTITLE1=I Do Love You
TTITLE2=Sitting In The Park
TTITLE3=Sad Girl
TTITLE4=Lies
TTITLE5=Wonderful
TTITLE6=Shy Baby
TTITLE7=Don’T Stop This Feeling
TTITLE8=Dark Side Of The Sun
TTITLE9=Someday (In Your Life)
TTITLE10=Reason For The Season (Long Version)
TTITLE11=You’Re Never Too Old (To Get On Down)
TTITLE12=Make My Dreams A Reality (Remix)
TTITLE13=Boogie Oogie Oogie (Remix)
TTITLE14=Disco Nights (Rock Freak) (Remix)
EXTD=
EXTT0=
EXTT1=
EXTT2=
EXTT3=
EXTT4=
EXTT5=
EXTT6=
EXTT7=
EXTT8=
EXTT9=
EXTT10=
EXTT11=
EXTT12=
EXTT13=
EXTT14=
PLAYORDER=
